<svg height="96.549991" viewBox="0 0 75.767928 96.5499908" width="75.767928" xmlns="http://www.w3.org/2000/svg"><g fill="none" fill-rule="evenodd" transform="matrix(.99862953 .05233596 -.05233596 .99862953 4.865231 0)"><path d="m5.88390682 0c.88058469 0 1.9079335.66666667 3.08204643 2 5.28350815 11 8.65908285 16.5 10.12672395 16.5 16.1440528 1.6666667 25.8304844 3.3333333 29.0592949 5 2.0546977-.3333333 3.815867-1 5.2835082-2 6.7511493-6.6666667 10.126724-10 10.126724-10 2.0546976-1 3.0820464-.8333333 3.0820464.5-2.9352823 17.3333333-4.4029235 26-4.4029235 26 1.7611694 1.3333333 2.9352824 2.5 3.5223388 3.5-1.1741129 1.6666667-1.7611694 2.5-1.7611694 2.5 1.4676412 3 2.2014618 4.5 2.2014618 4.5-2.9352824 1-4.4029235 1.5-4.4029235 1.5.8805847 12 1.320877 18 1.320877 18 2.6417541-2.3333333 3.9626312-4.1666667 3.9626312-5.5 1.1741129-3.3333333 2.0546976-4.1666667 2.641754-2.5 2.6417541 9.3333333 1.174113 15.6666667-4.4029234 19-13.5022987 11-26.1240126 15.5-37.8651419 13.5-17.61169386-3-21.57432498-15.5-21.57432498-20s-1.76116939-29.5-1.76116939-29.5c-2.64175408-.6666667-3.81586701-1.5-3.52233877-2.5 1.46764115-.6666667 2.34822585-1.3333333 2.64175408-2-2.64175408-1.3333333-3.6691029-2.5-3.08204643-3.5 2.05469762-1 3.37557466-2 3.96263112-3 1.46764116-15.6666667 2.05469762-24.66666667 1.76116939-27-.44029235-3.5 0-5 0-5z" fill="#000"/><circle cx="44.181818" cy="40" fill="#fff" r="7"/><circle cx="17.181818" cy="37" fill="#fff" r="6"/><circle cx="44.181818" cy="40" fill="#000" r="4"/><circle cx="17.181818" cy="37" fill="#000" r="3.428571"/><path d="m29.1818182 40.5c2-.6666667 3.5-.6666667 4.5 0-.6666667 2-1.3333334 2.8333333-2 2.5-1-.5-2.5-2.5-2.5-2.5z" fill="#fff" transform="matrix(.93969262 .34202014 -.34202014 .93969262 16.101621 -8.245405)"/></g></svg>