<svg height="548" viewBox="0 0 75.767928 548" width="75.767928" xmlns="http://www.w3.org/2000/svg"><g fill="none" fill-rule="evenodd" stroke="#000" transform="translate(18.399767 -301.179341)"><path d="m0 0c5.7193074 126.291859 6.95430625 261.77824 7.05261597 396.844465-1.07806317 1.297817-1.50706016 1.960562-1.28699097 1.988236.37048425.046589 1.28071319-.57077 2.5-1 .21162446-.074499.59857423 1.980322 1 2 .35564852.017123.72181181-1.50406 1-1.5.8589915.012535 2.3715757 1.704341 3 1.5.2455879-.079857-.3391284-.889031-1.7541491-2.427525-.6088215-140.449868-1.95925166-341.3329101-4.78100715-391.59468358-.52943283-9.43038233-3.99739571-.01274231-5.99609375-.01911346z" fill="#fff"/><g stroke-linecap="square"><path d="m9.265625 398.832701c-.23579708 2.272246-.23579708 3.938913 0 5s.9024637 2.39442 2 4"/><path d="m7.265625 398.832701s-.11606773 1.104158-.5 2c-.36562008.853113-1 1.5-1 1.5"/><path d="m11.265625 398.832701v3"/></g><path d="m6.81933594 390.612486c1.54085286.770182 3.08170573 1.540365 4.62255856 2.310547"/><path d="m6.92675781 384.825865c1.68212901.416341 3.36425769.832682 5.04638669 1.249023"/><path d="m6.83251953 379.35272c1.50651042.327312 3.01302083.654623 4.51953127.981934"/><path d="m6.97070312 374.393736c1.37190756.410319 2.74381511.820638 4.11572268 1.230957"/><path d="m6.96533203 368.231627c1.49804688.572265 2.99609375 1.144531 4.49414067 1.716797"/><path d="m6.71679688 362.33026c1.50553385.567871 3.0110677 1.135742 4.51660152 1.703613"/><path d="m6.83203125 356.224303c1.53320322.464192 3.06640616.928385 4.59960935 1.392578"/><path d="m6.88134766 349.800963c1.64827474.555826 3.29654944 1.111653 4.94482424 1.66748"/><path d="m6.66015625 343.324888c1.44466146.576823 2.88932292 1.153646 4.33398435 1.730469"/><path d="m7.00341797 338.495299c1.56445312.52539 3.12890623 1.050781 4.69335933 1.576171"/><path d="m6.82910156 333.256041c1.33284505.514648 2.66569011 1.029297 3.99853514 1.543945"/><path d="m6.86083984 327.299498c1.48714193.263834 2.97428386.527669 4.46142576.791504"/><path d="m7.046875 321.93524c1.62727865.419922 3.2545573.839844 4.8818359 1.259766"/><path d="m6.89892578 315.274595c1.50162761.710612 3.00325521 1.421224 4.50488282 2.131836"/><path d="m6.77246094 309.379088c1.2828776.638997 2.56575521 1.277994 3.84863286 1.916992"/><path d="m6.86230469 305.335631c1.3971355.308431 2.79427075.616862 4.19140621.925293"/></g></svg>