<svg height="548" viewBox="0 0 75.767928 548" width="75.767928" xmlns="http://www.w3.org/2000/svg"><g fill="none" fill-rule="evenodd" transform="translate(0 -242.553671)"><g transform="matrix(.99862953 .05233596 -.05233596 .99862953 4.865231 647.471399)"><path d="m5.88390682 0c.88058469 0 1.9079335.66666667 3.08204643 2 5.28350815 11 8.65908285 16.5 10.12672395 16.5 16.1440528 1.6666667 25.8304844 3.3333333 29.0592949 5 2.0546977-.3333333 3.815867-1 5.2835082-2 6.7511493-6.6666667 10.126724-10 10.126724-10 2.0546976-1 3.0820464-.8333333 3.0820464.5-2.9352823 17.3333333-4.4029235 26-4.4029235 26 1.7611694 1.3333333 2.9352824 2.5 3.5223388 3.5-1.1741129 1.6666667-1.7611694 2.5-1.7611694 2.5 1.4676412 3 2.2014618 4.5 2.2014618 4.5-2.9352824 1-4.4029235 1.5-4.4029235 1.5.8805847 12 1.320877 18 1.320877 18 2.6417541-2.3333333 3.9626312-4.1666667 3.9626312-5.5 1.1741129-3.3333333 2.0546976-4.1666667 2.641754-2.5 2.6417541 9.3333333 1.174113 15.6666667-4.4029234 19-13.5022987 11-26.1240126 15.5-37.8651419 13.5-17.61169386-3-21.57432498-15.5-21.57432498-20s-1.76116939-29.5-1.76116939-29.5c-2.64175408-.6666667-3.81586701-1.5-3.52233877-2.5 1.46764115-.6666667 2.34822585-1.3333333 2.64175408-2-2.64175408-1.3333333-3.6691029-2.5-3.08204643-3.5 2.05469762-1 3.37557466-2 3.96263112-3 1.46764116-15.6666667 2.05469762-24.66666667 1.76116939-27-.44029235-3.5 0-5 0-5z" fill="#000"/><circle cx="44.181818" cy="40" fill="#fff" r="7"/><circle cx="17.181818" cy="37" fill="#fff" r="6"/><circle cx="44.181818" cy="40" fill="#000" r="4"/><circle cx="17.181818" cy="37" fill="#000" r="3.428571"/><path d="m29.1818182 40.5c2-.6666667 3.5-.6666667 4.5 0-.6666667 2-1.3333334 2.8333333-2 2.5-1-.5-2.5-2.5-2.5-2.5z" fill="#fff" transform="matrix(.93969262 .34202014 -.34202014 .93969262 16.101621 -8.245405)"/></g><g stroke="#000" transform="translate(20.368517)"><g stroke-linecap="square"><path d="m8.296875 388.707031c-.8874046 1.376273-1.3874046 2.542939-1.5 3.5s.05407127 2.623728.5 5"/><path d="m2.796875 391.207031s1.22366562.947331 2 2.5c.2407725.481545.40743917 1.314879.5 2.5"/><path d="m9.296875 393.207031v4"/></g><path d="m5.08386597 398.218796c.0932475 128.111312-.83614586 255.844626.06847778 374.995353.03598903 4.740225 5.55573645 8.453103 6.14453125 1.492882 3.3763557-39.912339-2.91691418-151.740614-2.92578125-184.351372-.00453234-16.668737 1.60276289-32.701675 1.625-49.370072.00119341-.894548-.10394356-61.59691-.45336787-142.20608.99423232-1.626669 1.41228202-2.484161 1.25414912-2.572476-.4752346-.265412-2.37231463 2.157823-2.5 2-.67836721-.838483-.85004339-3.480574-1-3.502209-.75102269-.104676-.12996417 3.702894-.5 3.502209-.78849199-.427629-2.15905598-2.459181-2.5-2.5-.30760083-.038681-.0452705.798574.78699097 2.511765z" fill="#fff"/><path d="m5.13427734 769.134766c1.98421224 1.653483 3.96842448 3.306966 5.95263676 4.960449"/><path d="m5.04638672 760.741211c2.3072918 1.663249 4.61458319 3.326497 6.92187498 4.989746"/><path d="m4.96582031 752.189941c2.3811849 1.480957 4.76236979 2.961914 7.14355469 4.442871"/><path d="m5.06201172 745.143066c2.38590495.981608 4.77180989 1.963217 7.15771488 2.944825"/><path d="m4.88525391 738.875c2.38183593 1.030436 4.76367187 2.060872 7.14550779 3.091309"/><path d="m4.89941406 732.574707c2.45345052.799642 4.90690104 1.599284 7.36035154 2.398926"/><path d="m4.88574219 727.234863c2.41536458.59375 4.83072916 1.1875 7.24609371 1.78125"/><path d="m4.96142578 720.202148c2.44352228.654297 4.88704413 1.308594 7.33056642 1.962891"/><path d="m4.49267578 713.446289c2.46809896.773763 4.93619792 1.547526 7.40429692 2.321289"/><path d="m4.65527344 705.520508c2.52864598.92985 5.05729151 1.8597 7.58593746 2.789551"/><path d="m4.62646484 698.90332c2.44856771.816081 4.89713542 1.632162 7.34570316 2.448242"/><path d="m4.75537109 692.780273c2.28092448.729818 4.56184896 1.459636 6.84277341 2.189454"/><path d="m4.8671875 686.115234c2.13785807.863444 4.27571615 1.726888 6.4135742 2.590332"/><path d="m4.56982422 681.115234c2.16617838.578614 4.33235677 1.157227 6.49853518 1.73584"/><path d="m4.63476562 672.715332c2.02246094.734375 4.04492188 1.46875 6.06738278 2.203125"/><path d="m4.45410156 665.669922c2.26513686.851074 4.5302733 1.702148 6.79541014 2.553223"/><path d="m4.79785156 659.23584c1.87011719.665527 3.74023438 1.331055 5.61035154 1.996582"/><path d="m4.76171875 650.696289c1.77539063.652507 3.55078125 1.305013 5.32617185 1.95752"/><path d="m4.34765625 643.203613c1.80110677.500163 3.60221354 1.000326 5.40332031 1.500489"/><path d="m4.63476562 636.337891c1.70979818.588379 3.41959636 1.176757 5.12939454 1.765136"/><path d="m4.88964844 628.37793c1.64860026.520833 3.29720052 1.041666 4.94580078 1.5625"/><path d="m4.74511719 619.766113c1.47802734.803223 2.95605469 1.606446 4.43408203 2.409668"/><path d="m4.80566406 610.337402c1.35774748.722819 2.71549471 1.445638 4.07324219 2.168457"/><path d="m4.63720703 601.439453c1.45654306.627442 2.91308585 1.254883 4.36962891 1.882324"/><path d="m4.68261719 594.626465c1.17871093.902181 2.35742187 1.804362 3.53613281 2.706543"/><path d="m4.59277344 589.075195c1.19580078.690104 2.39160156 1.380209 3.58740234 2.070313"/><path d="m4.68115234 581.963867c1.15950521.542969 2.31901042 1.085938 3.47851563 1.628906"/><path d="m4.54199219 576.797852c1.39973958.655761 2.79947916 1.311523 4.19921875 1.967285"/><path d="m4.56152344 571.330078c1.45556649.547526 2.91113272 1.095052 4.36669922 1.642578"/><path d="m4.59130859 563.846191c1.49560556.977051 2.99121085 1.954102 4.48681641 2.931153"/><path d="m4.73632812 558.397461c1.53450521.561361 3.06901042 1.122721 4.60351563 1.684082"/><path d="m4.83056641 552.685059c1.51220703.357747 3.02441406.715494 4.53662109 1.073242"/><path d="m4.60400391 546.09668c1.77441406.379394 3.54882812.758789 5.32324218 1.138183"/><path d="m4.66259766 539.973633c1.77604166.302571 3.55208333.605143 5.328125.907715"/><path d="m4.66894531 533.662598c1.85986328.903808 3.71972657 1.807617 5.57958989 2.711425"/><path d="m4.73632812 527.178711c1.65771485.974772 3.31542969 1.949544 4.97314454 2.924316"/><path d="m4.72949219 520.41748c1.756185.670573 3.51236968 1.341146 5.26855469 2.011719"/><path d="m4.97753906 513.932129c1.76106782.951335 3.52213531 1.902669 5.28320314 2.854004"/><path d="m4.97949219 507.59668c1.52522786.738932 3.05045573 1.477864 4.57568359 2.216797"/><path d="m4.89453125 500.577637c1.47607422.701172 2.95214844 1.402343 4.42822266 2.103515"/><path d="m4.92041016 495.687012c1.67480478.508626 3.34960927 1.017252 5.02441406 1.525879"/><path d="m4.30419922 488.132324c1.81184896.553223 3.62369792 1.106446 5.43554687 1.659668"/><path d="m5.04003906 483.723633c1.63655599.482584 3.27311198.965169 4.90966797 1.447754"/><path d="m4.87255859 477.645508c1.53873698.650553 3.07747396 1.301107 4.61621094 1.95166"/><path d="m5.14355469 471.512695c1.59684245.35905 3.19368489.718099 4.79052734 1.077149"/><path d="m5.04248047 465.04834c1.75830088.57845 3.51660146 1.156901 5.27490233 1.735351"/><path d="m4.83105469 459.180664c1.71549489.430664 3.43098948.861328 5.14648437 1.291992"/><path d="m4.92041016 451.423828c1.58854166.538249 3.17708333 1.076498 4.765625 1.614746"/><path d="m5.12353516 444.124512c1.40283203.531575 2.80566406 1.063151 4.20849609 1.594726"/><path d="m5.23046875 437.951172c1.45670573.232585 2.91341146.465169 4.37011719.697754"/><path d="m5.06542969 430.099609c1.41894531.675782 2.83789062 1.351563 4.25683593 2.027344"/><path d="m5.0390625 423.872559c1.55013021.67513 3.10026042 1.35026 4.65039062 2.02539"/><path d="m5.08789062 416.378906c1.41471355.619304 2.82942709 1.238607 4.24414063 1.85791"/><path d="m5.19091797 410.519531c1.41080729.622396 2.82161458 1.244792 4.23242187 1.867188"/><path d="m4.921875 405.132324c1.46598307.292806 2.93196615.585612 4.39794922.878418"/><path d="m4.98193359 399.04541c1.49869792.601237 2.99739584 1.202474 4.49609375 1.803711"/></g><g fill="#000" stroke="#fff" stroke-linecap="round" stroke-linejoin="round" transform="matrix(.99862953 .05233596 -.05233596 .99862953 8.578869 698.374884)"><path d="m1.30918659 4.36063386c7.66666667 1.33333333 12.33333331 1.66666667 14.00000001 1 2.6666667-2 4.3333333-2.66666667 5-2 .3333333.33333333.3333333 1 0 2 .6666667.66666667 1 1.33333333 1 2 0 1.33333333-.1666667 2.16666667-.5 2.5.6666667.66666664.8333333 1.33333334.5 2.00000004-11 2.6666666-17.66666668 3.1666666-20.00000001 1.5" transform="matrix(.93969262 .34202014 -.34202014 .93969262 3.668238 -3.370808)"/><path d="m40.3091866 3.86063386c-9 4.33333333-15.6666667 6.33333334-20 6-2 .66666664-2.5 1.50000004-1.5 2.50000004-1.3333333.6666666-1.8333333 1.5-1.5 2.5 1.6666667 1.6666666 2.5 2.5 2.5 2.5-2 1-2.3333333 1.6666666-1 2 12 1 19.1666667.6666666 21.5-1"/><path d="m4.80918659 27.3606339c4 1 6.50000001 2 10.50000001.5-.6666667-3-.3333333-4.6666667 1-5 5.3333333 0 7.3333333 1.5 6 4.5-1 5.3333333-3.6666667 7.8333333-8 7.5l-6.00000001.5" transform="matrix(.94551858 .32556815 -.32556815 .94551858 10.227115 -2.893564)"/><path d="m35.9606267 25.8547833c-6.3894389 2.0330033-9.5841584 3.339934-9.5841584 3.9207921-.8712871-2.9042905-2.4686468-4.2112212-4.7920792-3.9207921-4.0660066 1.4521452-4.9372937 4.7920792-2.6138614 10.019802 4.3564357 2.0330033 9.2937294 2.4686468 14.8118812 1.3069306"/></g></g></svg>