<svg height="548" viewBox="0 0 75.767928 548" width="75.767928" xmlns="http://www.w3.org/2000/svg"><g fill="none" fill-rule="evenodd" transform="translate(0 -301.179341)"><g transform="matrix(.99862953 .05233596 -.05233596 .99862953 4.865231 706.097069)"><path d="m5.88390682 0c.88058469 0 1.9079335.66666667 3.08204643 2 5.28350815 11 8.65908285 16.5 10.12672395 16.5 16.1440528 1.6666667 25.8304844 3.3333333 29.0592949 5 2.0546977-.3333333 3.815867-1 5.2835082-2 6.7511493-6.6666667 10.126724-10 10.126724-10 2.0546976-1 3.0820464-.8333333 3.0820464.5-2.9352823 17.3333333-4.4029235 26-4.4029235 26 1.7611694 1.3333333 2.9352824 2.5 3.5223388 3.5-1.1741129 1.6666667-1.7611694 2.5-1.7611694 2.5 1.4676412 3 2.2014618 4.5 2.2014618 4.5-2.9352824 1-4.4029235 1.5-4.4029235 1.5.8805847 12 1.320877 18 1.320877 18 2.6417541-2.3333333 3.9626312-4.1666667 3.9626312-5.5 1.1741129-3.3333333 2.0546976-4.1666667 2.641754-2.5 2.6417541 9.3333333 1.174113 15.6666667-4.4029234 19-13.5022987 11-26.1240126 15.5-37.8651419 13.5-17.61169386-3-21.57432498-15.5-21.57432498-20s-1.76116939-29.5-1.76116939-29.5c-2.64175408-.6666667-3.81586701-1.5-3.52233877-2.5 1.46764115-.6666667 2.34822585-1.3333333 2.64175408-2-2.64175408-1.3333333-3.6691029-2.5-3.08204643-3.5 2.05469762-1 3.37557466-2 3.96263112-3 1.46764116-15.6666667 2.05469762-24.66666667 1.76116939-27-.44029235-3.5 0-5 0-5z" fill="#000"/><circle cx="44.181818" cy="40" fill="#fff" r="7"/><circle cx="17.181818" cy="37" fill="#fff" r="6"/><circle cx="44.181818" cy="40" fill="#000" r="4"/><circle cx="17.181818" cy="37" fill="#000" r="3.428571"/><path d="m29.1818182 40.5c2-.6666667 3.5-.6666667 4.5 0-.6666667 2-1.3333334 2.8333333-2 2.5-1-.5-2.5-2.5-2.5-2.5z" fill="#fff" transform="matrix(.93969262 .34202014 -.34202014 .93969262 16.101621 -8.245405)"/></g><g stroke="#000" transform="translate(18.399767)"><path d="m0 0c5.7193074 126.291859 6.95430625 261.77824 7.05261597 396.844465-1.07806317 1.297817-1.50706016 1.960562-1.28699097 1.988236.37048425.046589 1.28071319-.57077 2.5-1 .21162446-.074499.59857423 1.980322 1 2 .35564852.017123.72181181-1.50406 1-1.5.8589915.012535 2.3715757 1.704341 3 1.5.2455879-.079857-.3391284-.889031-1.7541491-2.427525-.6088215-140.449868-1.95925166-341.3329101-4.78100715-391.59468358-.52943283-9.43038233-3.99739571-.01274231-5.99609375-.01911346z" fill="#fff"/><g stroke-linecap="square"><path d="m9.265625 398.832701v57"/><path d="m4.765625 449.832701s1.22366562.947331 2 2.5c.2407725.481545.40743917 1.314878.5 2.5"/><path d="m7.265625 398.832701s-.11606773 1.104158-.5 2c-.36562008.853113-1 1.5-1 1.5"/><path d="m11.265625 398.832701v3"/><path d="m11.265625 451.832701v4"/></g><path d="m7.05261597 456.844465c.0932475 128.111313-.83614586 255.844627.06847778 374.995354.03598903 4.740225 5.55573645 8.453102 6.14453125 1.492882 3.3763557-39.912339-2.9169142-151.740615-2.9257812-184.351372-.0045324-16.668738 1.6027628-32.701675 1.625-49.370072.0011934-.894548-.1039436-61.59691-.4533679-142.206081.9942323-1.626668 1.412282-2.48416 1.2541491-2.572475-.4752346-.265412-2.3723146 2.157823-2.5 2-.67836721-.838483-.85004339-3.480574-1-3.50221-.75102269-.104675-.12996417 3.702894-.5 3.50221-.78849199-.427629-2.15905598-2.459181-2.5-2.5-.30760083-.038682-.0452705.798573.78699097 2.511764z" fill="#fff"/><path d="m7.10302734 827.760435c1.98421224 1.653483 3.96842446 3.306966 5.95263676 4.96045"/><path d="m7.01513672 819.366881c2.3072918 1.663248 4.61458318 3.326497 6.92187498 4.989746"/><path d="m6.93457031 810.815611c2.3811849 1.480957 4.76236979 2.961914 7.14355469 4.442871"/><path d="m7.03076172 803.768736c2.38590495.981608 4.77180988 1.963216 7.15771488 2.944824"/><path d="m6.85400391 797.50067c2.38183593 1.030436 4.76367189 2.060872 7.14550779 3.091308"/><path d="m6.86816406 791.200377c2.45345052.799642 4.90690104 1.599284 7.36035154 2.398926"/><path d="m6.85449219 785.860533c2.41536458.59375 4.83072921 1.1875 7.24609371 1.78125"/><path d="m6.93017578 778.827818c2.44352228.654297 4.88704412 1.308594 7.33056642 1.962891"/><path d="m6.46142578 772.071959c2.46809896.773763 4.93619792 1.547526 7.40429692 2.321289"/><path d="m6.62402344 764.146178c2.52864598.92985 5.05729156 1.8597 7.58593746 2.78955"/><path d="m6.59521484 757.52899c2.44856771.816081 4.89713546 1.632161 7.34570316 2.448242"/><path d="m6.72412109 751.405943c2.28092448.729818 4.56184901 1.459636 6.84277341 2.189453"/><path d="m6.8359375 744.740904c2.13785807.863444 4.2757161 1.726888 6.4135742 2.590332"/><path d="m6.53857422 739.740904c2.16617838.578613 4.33235678 1.157227 6.49853518 1.73584"/><path d="m6.60351562 731.341002c2.02246094.734375 4.04492188 1.46875 6.06738278 2.203125"/><path d="m6.42285156 724.295592c2.26513686.851074 4.53027334 1.702148 6.79541014 2.553222"/><path d="m6.76660156 717.86151c1.87011719.665527 3.74023434 1.331054 5.61035154 1.996582"/><path d="m6.73046875 709.321959c1.77539063.652506 3.55078125 1.305013 5.32617185 1.957519"/><path d="m6.31640625 701.829283c1.80110677.500163 3.60221354 1.000325 5.40332035 1.500488"/><path d="m6.60351562 694.96356c1.70979818.588379 3.41959638 1.176758 5.12939458 1.765137"/><path d="m6.85839844 687.003599c1.64860026.520834 3.29720056 1.041667 4.94580076 1.5625"/><path d="m6.71386719 678.391783c1.47802734.803223 2.95605469 1.606445 4.43408201 2.409668"/><path d="m6.77441406 668.963072c1.35774748.722819 2.71549471 1.445638 4.07324214 2.168457"/><path d="m6.60595703 660.065123c1.45654306.627441 2.91308585 1.254883 4.36962887 1.882324"/><path d="m6.65136719 653.252135c1.17871093.902181 2.35742187 1.804362 3.53613281 2.706543"/><path d="m6.56152344 647.700865c1.19580078.690104 2.39160156 1.380208 3.58740236 2.070313"/><path d="m6.64990234 640.589537c1.15950521.542969 2.31901042 1.085937 3.47851566 1.628906"/><path d="m6.51074219 635.423521c1.39973958.655762 2.79947916 1.311524 4.19921871 1.967285"/><path d="m6.53027344 629.955748c1.45556649.547526 2.91113272 1.095052 4.36669926 1.642578"/><path d="m6.56005859 622.471861c1.49560556.977051 2.99121085 1.954102 4.48681641 2.931152"/><path d="m6.70507812 617.023131c1.53450521.56136 3.06901042 1.122721 4.60351568 1.684082"/><path d="m6.79931641 611.310728c1.51220703.357748 3.02441406.715495 4.53662109 1.073242"/><path d="m6.57275391 604.722349c1.77441406.379395 3.54882809.758789 5.32324219 1.138184"/><path d="m6.63134766 598.599303c1.77604166.302571 3.55208334.605143 5.32812504.907714"/><path d="m6.63769531 592.288267c1.85986328.903809 3.71972659 1.807618 5.57958989 2.711426"/><path d="m6.70507812 585.804381c1.65771485.974772 3.31542968 1.949544 4.97314458 2.924316"/><path d="m6.69824219 579.04315c1.756185.670573 3.51236971 1.341146 5.26855471 2.011719"/><path d="m6.94628906 572.557799c1.76106782.951334 3.52213534 1.902669 5.28320314 2.854004"/><path d="m6.94824219 566.222349c1.52522786.738933 3.05045573 1.477865 4.57568361 2.216797"/><path d="m6.86328125 559.203306c1.47607422.701172 2.95214844 1.402344 4.42822265 2.103516"/><path d="m6.88916016 554.312681c1.67480478.508627 3.34960924 1.017253 5.02441404 1.525879"/><path d="m6.27294922 546.757994c1.81184896.553223 3.62369792 1.106445 5.43554688 1.659668"/><path d="m7.00878906 542.349303c1.63655599.482584 3.27311194.965169 4.90966794 1.447753"/><path d="m6.84130859 536.271178c1.53873698.650553 3.07747396 1.301106 4.61621091 1.95166"/><path d="m7.11230469 530.138365c1.59684245.359049 3.19368491.718099 4.79052731 1.077148"/><path d="m7.01123047 523.67401c1.75830088.57845 3.51660143 1.156901 5.27490233 1.735351"/><path d="m6.79980469 517.806334c1.71549489.430664 3.43098951.861328 5.14648441 1.291992"/><path d="m6.88916016 510.049498c1.58854166.538249 3.17708334 1.076497 4.76562504 1.614746"/><path d="m7.09228516 502.750181c1.40283203.531576 2.80566406 1.063151 4.20849604 1.594727"/><path d="m7.19921875 496.576842c1.45670573.232584 2.91341145.465169 4.37011715.697753"/><path d="m7.03417969 488.725279c1.41894531.675781 2.83789062 1.351563 4.25683591 2.027344"/><path d="m7.0078125 482.498228c1.55013021.67513 3.1002604 1.350261 4.6503906 2.025391"/><path d="m7.05664062 475.004576c1.41471355.619303 2.82942709 1.238607 4.24414058 1.85791"/><path d="m7.15966797 469.145201c1.41080729.622396 2.82161458 1.244792 4.23242183 1.867187"/><path d="m6.890625 463.757994c1.46598307.292806 2.93196615.585612 4.3979492.878418"/><path d="m6.95068359 457.67108c1.49869792.601237 2.99739584 1.202474 4.49609371 1.803711"/><path d="m6.81933594 390.612486c1.54085286.770182 3.08170573 1.540365 4.62255856 2.310547"/><path d="m6.92675781 384.825865c1.68212901.416341 3.36425769.832682 5.04638669 1.249023"/><path d="m6.83251953 379.35272c1.50651042.327312 3.01302083.654623 4.51953127.981934"/><path d="m6.97070312 374.393736c1.37190756.410319 2.74381511.820638 4.11572268 1.230957"/><path d="m6.96533203 368.231627c1.49804688.572265 2.99609375 1.144531 4.49414067 1.716797"/><path d="m6.71679688 362.33026c1.50553385.567871 3.0110677 1.135742 4.51660152 1.703613"/><path d="m6.83203125 356.224303c1.53320322.464192 3.06640616.928385 4.59960935 1.392578"/><path d="m6.88134766 349.800963c1.64827474.555826 3.29654944 1.111653 4.94482424 1.66748"/><path d="m6.66015625 343.324888c1.44466146.576823 2.88932292 1.153646 4.33398435 1.730469"/><path d="m7.00341797 338.495299c1.56445312.52539 3.12890623 1.050781 4.69335933 1.576171"/><path d="m6.82910156 333.256041c1.33284505.514648 2.66569011 1.029297 3.99853514 1.543945"/><path d="m6.86083984 327.299498c1.48714193.263834 2.97428386.527669 4.46142576.791504"/><path d="m7.046875 321.93524c1.62727865.419922 3.2545573.839844 4.8818359 1.259766"/><path d="m6.89892578 315.274595c1.50162761.710612 3.00325521 1.421224 4.50488282 2.131836"/><path d="m6.77246094 309.379088c1.2828776.638997 2.56575521 1.277994 3.84863286 1.916992"/><path d="m6.86230469 305.335631c1.3971355.308431 2.79427075.616862 4.19140621.925293"/></g><g fill="#000" stroke="#fff" stroke-linecap="round" stroke-linejoin="round" transform="matrix(.99862953 .05233596 -.05233596 .99862953 8.578869 757.000553)"><path d="m1.30918659 4.36063386c7.66666667 1.33333333 12.33333331 1.66666667 14.00000001 1 2.6666667-2 4.3333333-2.66666667 5-2 .3333333.33333333.3333333 1 0 2 .6666667.66666667 1 1.33333333 1 2 0 1.33333333-.1666667 2.16666667-.5 2.5.6666667.66666664.8333333 1.33333334.5 2.00000004-11 2.6666666-17.66666668 3.1666666-20.00000001 1.5" transform="matrix(.93969262 .34202014 -.34202014 .93969262 3.668238 -3.370808)"/><path d="m40.3091866 3.86063386c-9 4.33333333-15.6666667 6.33333334-20 6-2 .66666664-2.5 1.50000004-1.5 2.50000004-1.3333333.6666666-1.8333333 1.5-1.5 2.5 1.6666667 1.6666666 2.5 2.5 2.5 2.5-2 1-2.3333333 1.6666666-1 2 12 1 19.1666667.6666666 21.5-1"/><path d="m4.80918659 27.3606339c4 1 6.50000001 2 10.50000001.5-.6666667-3-.3333333-4.6666667 1-5 5.3333333 0 7.3333333 1.5 6 4.5-1 5.3333333-3.6666667 7.8333333-8 7.5l-6.00000001.5" transform="matrix(.94551858 .32556815 -.32556815 .94551858 10.227115 -2.893564)"/><path d="m35.9606267 25.8547833c-6.3894389 2.0330033-9.5841584 3.339934-9.5841584 3.9207921-.8712871-2.9042905-2.4686468-4.2112212-4.7920792-3.9207921-4.0660066 1.4521452-4.9372937 4.7920792-2.6138614 10.019802 4.3564357 2.0330033 9.2937294 2.4686468 14.8118812 1.3069306"/></g></g></svg>