<svg xmlns="http://www.w3.org/2000/svg" id="canvas" viewBox="244.254 439.071 1170.801 149.185"><path d="M 327.64,446.77 C 327.41 445.52, 326.73 444.80, 325.39 443.93 C 324.06 443.05, 323.05 442.73, 320.98 442.39 C 318.90 442.04, 317.56 441.98, 315.03 442.20 C 312.50 442.42, 311.08 442.78, 308.35 443.49 C 305.62 444.20, 304.25 444.71, 301.38 445.74 C 298.52 446.78, 296.97 447.39, 294.04 448.67 C 291.10 449.95, 289.50 450.68, 286.71 452.15 C 283.92 453.61, 282.49 454.35, 280.09 455.99 C 277.68 457.63, 276.52 458.49, 274.69 460.34 C 272.86 462.20, 271.96 463.19, 270.93 465.26 C 269.89 467.33, 269.58 468.52, 269.53 470.69 C 269.48 472.86, 269.72 474.05, 270.68 476.12 C 271.63 478.20, 272.37 479.30, 274.31 481.07 C 276.25 482.84, 277.54 483.69, 280.38 484.98 C 283.21 486.27, 285.02 486.44, 288.49 487.52 C 291.96 488.59, 293.87 489.11, 297.74 490.34 C 301.61 491.58, 303.74 492.22, 307.83 493.70 C 311.92 495.18, 314.09 495.97, 318.18 497.74 C 322.28 499.51, 324.40 500.46, 328.30 502.54 C 332.19 504.62, 334.16 505.73, 337.68 508.13 C 341.21 510.52, 342.92 511.85, 345.91 514.50 C 348.91 517.15, 350.39 518.64, 352.67 521.38 C 354.95 524.11, 355.92 525.54, 357.32 528.16 C 358.73 530.78, 359.05 532.14, 359.70 534.47 C 360.35 536.79, 360.61 537.83, 360.57 539.79 C 360.53 541.74, 360.26 542.58, 359.49 544.24 C 358.73 545.90, 358.21 546.65, 356.74 548.10 C 355.27 549.55, 354.43 550.15, 352.16 551.48 C 349.89 552.81, 348.56 553.63, 345.38 554.73 C 342.20 555.84, 340.33 556.35, 336.26 557.00 C 332.19 557.66, 329.79 557.85, 325.04 557.99 C 320.30 558.14, 317.62 558.07, 312.52 557.72 C 307.42 557.38, 304.67 557.09, 299.56 556.27 C 294.45 555.45, 291.76 554.88, 286.97 553.65 C 282.18 552.41, 279.76 551.69, 275.59 550.10 C 271.42 548.52, 269.39 547.59, 266.12 545.71 C 262.86 543.83, 261.44 542.68, 259.26 540.70 C 257.08 538.71, 256.55 537.51, 255.23 535.78 C 253.91 534.06, 253.57 533.32, 252.65 532.08 C 251.72 530.85, 251.50 529.99, 250.59 529.60 C 249.68 529.20, 248.73 529.22, 248.08 530.11 C 247.43 531.00, 247.08 532.08, 247.34 534.05 C 247.60 536.02, 247.81 537.62, 249.37 539.95 C 250.94 542.28, 252.31 543.58, 255.14 545.71 C 257.98 547.84, 259.80 548.79, 263.55 550.60 C 267.30 552.41, 269.45 553.25, 273.91 554.77 C 278.37 556.28, 280.86 556.96, 285.84 558.17 C 290.82 559.38, 293.56 559.96, 298.82 560.82 C 304.08 561.68, 306.89 562.02, 312.14 562.49 C 317.40 562.96, 320.12 563.12, 325.08 563.18 C 330.05 563.25, 332.54 563.21, 336.97 562.82 C 341.41 562.43, 343.47 562.13, 347.25 561.23 C 351.03 560.33, 352.84 559.87, 355.87 558.33 C 358.89 556.79, 360.29 555.78, 362.38 553.54 C 364.47 551.30, 365.23 549.84, 366.32 547.13 C 367.40 544.42, 367.72 542.95, 367.82 539.99 C 367.92 537.03, 367.78 535.38, 366.81 532.33 C 365.85 529.29, 364.94 527.76, 363.01 524.77 C 361.07 521.79, 359.85 520.31, 357.15 517.41 C 354.45 514.51, 352.82 513.03, 349.52 510.29 C 346.21 507.55, 344.38 506.19, 340.63 503.72 C 336.88 501.25, 334.82 500.10, 330.76 497.92 C 326.71 495.75, 324.53 494.75, 320.35 492.85 C 316.18 490.95, 313.97 490.09, 309.88 488.41 C 305.79 486.72, 303.64 485.98, 299.90 484.43 C 296.16 482.89, 294.27 482.17, 291.16 480.68 C 288.04 479.18, 286.66 478.22, 284.33 476.96 C 281.99 475.70, 281.00 475.28, 279.48 474.38 C 277.96 473.47, 277.46 473.15, 276.72 472.44 C 275.99 471.74, 275.78 471.57, 275.80 470.86 C 275.83 470.15, 276.04 469.85, 276.86 468.90 C 277.68 467.95, 278.34 467.32, 279.90 466.11 C 281.46 464.90, 282.53 464.22, 284.64 462.85 C 286.76 461.49, 287.99 460.61, 290.49 459.28 C 292.99 457.94, 294.44 457.23, 297.15 456.17 C 299.87 455.10, 301.42 454.71, 304.08 453.93 C 306.73 453.15, 308.07 452.76, 310.41 452.28 C 312.76 451.79, 313.84 451.66, 315.80 451.51 C 317.76 451.35, 318.64 451.55, 320.22 451.51 C 321.79 451.47, 322.42 451.58, 323.69 451.30 C 324.95 451.03, 325.74 451.04, 326.53 450.14 C 327.32 449.23, 327.87 448.01, 327.64 446.77" style="stroke: black; fill: black;"/><path d="M 412.66,507.22 C 413.16 506.00, 412.92 504.88, 412.24 503.50 C 411.56 502.12, 410.79 501.42, 409.25 500.33 C 407.71 499.23, 406.58 498.63, 404.53 498.02 C 402.49 497.41, 401.31 497.36, 399.01 497.27 C 396.70 497.19, 395.55 497.21, 393.02 497.59 C 390.49 497.97, 389.09 498.19, 386.36 499.19 C 383.64 500.18, 382.14 500.91, 379.39 502.55 C 376.63 504.19, 375.20 505.22, 372.59 507.37 C 369.99 509.52, 368.66 510.74, 366.36 513.30 C 364.05 515.86, 362.88 517.28, 361.08 520.16 C 359.28 523.05, 358.39 524.61, 357.35 527.73 C 356.30 530.86, 355.95 532.62, 355.87 535.78 C 355.80 538.93, 356.05 540.61, 356.99 543.51 C 357.93 546.41, 358.69 547.86, 360.59 550.27 C 362.48 552.68, 363.76 553.89, 366.45 555.57 C 369.15 557.24, 370.82 557.88, 374.05 558.64 C 377.28 559.41, 379.11 559.48, 382.60 559.40 C 386.08 559.31, 388.00 559.07, 391.49 558.23 C 394.99 557.38, 396.78 556.65, 400.07 555.18 C 403.36 553.71, 405.01 552.81, 407.93 550.85 C 410.85 548.89, 412.27 547.75, 414.67 545.38 C 417.08 543.01, 418.19 541.68, 419.95 539.00 C 421.72 536.33, 422.44 534.85, 423.50 532.02 C 424.56 529.19, 424.86 527.65, 425.26 524.85 C 425.66 522.06, 425.60 520.62, 425.50 518.05 C 425.39 515.48, 425.38 514.15, 424.75 512.00 C 424.13 509.86, 423.70 508.51, 422.37 507.33 C 421.05 506.14, 419.71 505.88, 418.12 506.09 C 416.52 506.31, 415.50 506.98, 414.40 508.40 C 413.31 509.82, 412.86 510.90, 412.64 513.17 C 412.42 515.44, 412.72 516.98, 413.32 519.76 C 413.93 522.55, 414.65 524.13, 415.66 527.09 C 416.67 530.04, 417.18 531.55, 418.37 534.52 C 419.56 537.49, 420.18 539.07, 421.60 541.93 C 423.02 544.80, 423.74 546.32, 425.48 548.86 C 427.21 551.41, 428.26 552.60, 430.28 554.66 C 432.31 556.71, 433.42 557.72, 435.62 559.15 C 437.82 560.59, 439.20 561.22, 441.28 561.81 C 443.37 562.40, 444.49 562.36, 446.04 562.11 C 447.59 561.87, 448.42 561.42, 449.04 560.58 C 449.66 559.74, 449.53 558.79, 449.12 557.93 C 448.71 557.06, 448.02 556.91, 447.01 556.24 C 445.99 555.57, 445.44 555.33, 444.04 554.59 C 442.64 553.85, 441.62 553.65, 440.02 552.55 C 438.42 551.45, 437.60 550.75, 436.04 549.10 C 434.47 547.44, 433.67 546.39, 432.20 544.25 C 430.72 542.12, 429.92 540.91, 428.67 538.41 C 427.41 535.91, 426.81 534.47, 425.93 531.76 C 425.04 529.05, 424.71 527.62, 424.24 524.86 C 423.76 522.10, 423.89 520.45, 423.56 517.95 C 423.22 515.44, 423.12 514.13, 422.56 512.34 C 422.00 510.54, 421.66 509.84, 420.77 508.99 C 419.88 508.14, 419.04 507.87, 418.13 508.09 C 417.21 508.30, 416.49 508.89, 416.19 510.05 C 415.90 511.21, 416.38 512.20, 416.65 513.89 C 416.91 515.57, 417.38 516.51, 417.52 518.48 C 417.67 520.45, 417.66 521.59, 417.37 523.75 C 417.07 525.91, 416.84 527.07, 416.05 529.29 C 415.26 531.51, 414.74 532.65, 413.41 534.84 C 412.08 537.02, 411.31 538.19, 409.40 540.20 C 407.50 542.22, 406.35 543.23, 403.90 544.92 C 401.45 546.61, 399.98 547.41, 397.17 548.64 C 394.36 549.88, 392.79 550.46, 389.87 551.08 C 386.95 551.69, 385.35 551.79, 382.58 551.72 C 379.81 551.65, 378.40 551.36, 376.01 550.73 C 373.63 550.11, 372.53 549.66, 370.65 548.59 C 368.77 547.51, 367.89 546.84, 366.62 545.36 C 365.34 543.88, 364.84 543.06, 364.26 541.19 C 363.68 539.33, 363.62 538.24, 363.73 536.03 C 363.83 533.83, 364.02 532.54, 364.78 530.17 C 365.54 527.79, 366.09 526.50, 367.53 524.15 C 368.96 521.80, 369.96 520.54, 371.94 518.42 C 373.92 516.31, 375.12 515.26, 377.43 513.58 C 379.75 511.91, 381.12 511.23, 383.51 510.02 C 385.90 508.82, 387.20 508.36, 389.39 507.57 C 391.59 506.79, 392.62 506.47, 394.48 506.09 C 396.35 505.72, 397.25 505.66, 398.72 505.70 C 400.19 505.74, 400.72 505.88, 401.84 506.30 C 402.97 506.72, 403.37 507.25, 404.34 507.81 C 405.32 508.36, 405.65 508.72, 406.72 509.08 C 407.80 509.44, 408.53 509.96, 409.72 509.59 C 410.91 509.22, 412.16 508.44, 412.66 507.22" style="stroke: black; fill: black;"/><path d="M 454.37,504.09 C 453.50 504.89, 453.38 505.61, 453.21 507.10 C 453.04 508.59, 453.08 509.53, 453.53 511.54 C 453.99 513.55, 454.55 514.82, 455.50 517.15 C 456.44 519.48, 457.13 520.70, 458.25 523.20 C 459.38 525.71, 459.95 527.04, 461.12 529.67 C 462.30 532.29, 462.90 533.68, 464.13 536.33 C 465.37 538.97, 465.97 540.40, 467.31 542.90 C 468.64 545.40, 469.38 546.64, 470.81 548.84 C 472.23 551.03, 472.96 552.14, 474.43 553.86 C 475.91 555.59, 476.63 556.38, 478.17 557.45 C 479.71 558.51, 480.47 558.92, 482.15 559.21 C 483.82 559.50, 484.88 559.51, 486.55 558.90 C 488.21 558.29, 489.22 557.62, 490.47 556.15 C 491.73 554.68, 492.10 553.66, 492.83 551.54 C 493.56 549.42, 493.72 548.15, 494.14 545.56 C 494.56 542.96, 494.62 541.44, 494.92 538.56 C 495.23 535.68, 495.27 534.12, 495.67 531.15 C 496.06 528.18, 496.34 526.62, 496.88 523.71 C 497.43 520.79, 497.85 519.31, 498.39 516.56 C 498.92 513.82, 499.12 512.42, 499.56 509.98 C 500.00 507.54, 500.25 506.38, 500.58 504.37 C 500.91 502.36, 501.19 501.38, 501.21 499.93 C 501.24 498.47, 501.00 498.00, 500.72 497.10 C 500.44 496.20, 500.39 495.87, 499.83 495.41 C 499.27 494.96, 498.65 494.73, 497.92 494.80 C 497.19 494.88, 496.90 495.12, 496.17 495.81 C 495.45 496.50, 494.94 496.86, 494.28 498.25 C 493.62 499.64, 493.39 500.71, 492.87 502.74 C 492.35 504.78, 492.20 505.97, 491.67 508.42 C 491.15 510.87, 490.78 512.21, 490.25 514.98 C 489.71 517.74, 489.53 519.29, 488.99 522.25 C 488.45 525.22, 488.14 526.81, 487.54 529.80 C 486.95 532.78, 486.58 534.36, 486.00 537.17 C 485.42 539.99, 485.11 541.46, 484.64 543.86 C 484.16 546.26, 483.88 547.42, 483.63 549.19 C 483.37 550.95, 483.30 551.67, 483.35 552.67 C 483.40 553.67, 483.72 553.94, 483.86 554.20 C 484.01 554.45, 484.26 554.34, 484.08 553.95 C 483.89 553.56, 483.63 553.22, 482.95 552.25 C 482.27 551.27, 481.71 550.63, 480.67 549.08 C 479.64 547.53, 478.97 546.52, 477.78 544.51 C 476.59 542.49, 475.94 541.34, 474.74 539.01 C 473.54 536.67, 472.92 535.35, 471.78 532.82 C 470.64 530.29, 470.06 528.93, 469.04 526.34 C 468.03 523.75, 467.58 522.40, 466.71 519.86 C 465.85 517.33, 465.54 515.97, 464.72 513.65 C 463.90 511.33, 463.52 510.04, 462.61 508.26 C 461.70 506.49, 461.18 505.81, 460.17 504.78 C 459.17 503.75, 458.73 503.24, 457.57 503.11 C 456.40 502.97, 455.24 503.29, 454.37 504.09" style="stroke: black; fill: black;"/><path d="M 528.23,531.29 C 529.50 531.61, 530.38 531.12, 531.85 530.47 C 533.32 529.81, 534.11 529.26, 535.58 528.01 C 537.06 526.75, 537.86 525.78, 539.21 524.19 C 540.57 522.61, 541.16 521.76, 542.36 520.09 C 543.56 518.41, 544.26 517.57, 545.23 515.83 C 546.19 514.09, 546.64 513.19, 547.17 511.39 C 547.69 509.59, 547.91 508.65, 547.84 506.83 C 547.77 505.01, 547.61 503.97, 546.81 502.28 C 546.00 500.60, 545.36 499.65, 543.81 498.41 C 542.27 497.16, 541.20 496.59, 539.09 496.04 C 536.97 495.49, 535.69 495.43, 533.25 495.65 C 530.82 495.87, 529.47 496.20, 526.91 497.14 C 524.35 498.08, 522.95 498.75, 520.43 500.35 C 517.92 501.95, 516.65 502.95, 514.34 505.12 C 512.04 507.28, 510.89 508.56, 508.92 511.17 C 506.95 513.78, 505.92 515.21, 504.49 518.19 C 503.06 521.17, 502.38 522.80, 501.77 526.06 C 501.16 529.32, 500.94 531.16, 501.43 534.50 C 501.91 537.83, 502.50 539.67, 504.19 542.74 C 505.88 545.81, 507.09 547.31, 509.89 549.85 C 512.69 552.38, 514.46 553.49, 518.21 555.42 C 521.96 557.36, 524.16 558.16, 528.64 559.54 C 533.12 560.91, 535.64 561.44, 540.61 562.30 C 545.59 563.16, 548.73 563.45, 553.53 563.84 C 558.32 564.24, 560.88 564.48, 564.59 564.28 C 568.29 564.08, 570.57 563.73, 572.05 562.86 C 573.53 561.98, 573.45 560.70, 571.97 559.91 C 570.49 559.11, 568.26 559.18, 564.66 558.89 C 561.05 558.60, 558.58 558.81, 553.95 558.46 C 549.32 558.12, 546.23 557.98, 541.51 557.15 C 536.79 556.32, 534.42 555.72, 530.36 554.29 C 526.29 552.87, 524.34 551.92, 521.19 550.04 C 518.04 548.17, 516.70 547.06, 514.62 544.91 C 512.54 542.76, 511.88 541.59, 510.78 539.31 C 509.68 537.02, 509.38 535.84, 509.13 533.49 C 508.87 531.15, 509.00 529.95, 509.50 527.60 C 510.00 525.24, 510.47 524.00, 511.64 521.72 C 512.81 519.45, 513.65 518.26, 515.34 516.22 C 517.03 514.18, 518.13 513.18, 520.09 511.52 C 522.05 509.86, 523.13 509.12, 525.12 507.93 C 527.11 506.74, 528.20 506.27, 530.03 505.58 C 531.87 504.89, 532.80 504.73, 534.29 504.49 C 535.79 504.24, 536.47 504.32, 537.52 504.37 C 538.57 504.41, 538.94 504.51, 539.55 504.72 C 540.15 504.92, 540.32 505.00, 540.54 505.39 C 540.76 505.78, 540.79 505.98, 540.66 506.66 C 540.53 507.35, 540.35 507.82, 539.89 508.81 C 539.42 509.81, 539.15 510.45, 538.33 511.64 C 537.51 512.83, 536.96 513.51, 535.80 514.76 C 534.63 516.00, 533.86 516.56, 532.50 517.86 C 531.14 519.15, 530.24 519.83, 528.99 521.23 C 527.73 522.63, 526.92 523.35, 526.22 524.87 C 525.53 526.38, 525.11 527.54, 525.52 528.83 C 525.92 530.11, 526.97 530.96, 528.23 531.29" style="stroke: black; fill: black;"/><path d="M 694.43,473.79 C 693.38 474.65, 693.05 475.72, 692.61 477.80 C 692.16 479.87, 691.97 481.36, 692.21 484.17 C 692.44 486.98, 693.14 488.66, 693.78 491.84 C 694.41 495.02, 694.77 496.65, 695.38 500.07 C 695.98 503.49, 696.24 505.26, 696.81 508.96 C 697.38 512.65, 697.68 514.66, 698.25 518.56 C 698.82 522.45, 699.13 524.50, 699.66 528.43 C 700.20 532.37, 700.47 534.39, 700.90 538.21 C 701.34 542.03, 701.54 543.96, 701.83 547.53 C 702.13 551.11, 702.02 552.96, 702.38 556.09 C 702.74 559.21, 702.90 560.90, 703.62 563.14 C 704.34 565.38, 704.96 566.52, 705.96 567.29 C 706.97 568.07, 707.83 567.98, 708.65 567.00 C 709.47 566.03, 709.85 564.78, 710.05 562.42 C 710.26 560.07, 710.04 558.37, 709.67 555.24 C 709.31 552.11, 708.76 550.33, 708.22 546.78 C 707.67 543.22, 707.46 541.29, 706.95 537.46 C 706.43 533.64, 706.16 531.59, 705.65 527.64 C 705.13 523.69, 704.85 521.63, 704.36 517.73 C 703.88 513.83, 703.62 511.82, 703.22 508.12 C 702.83 504.41, 702.63 502.64, 702.38 499.19 C 702.13 495.75, 702.08 494.08, 701.96 490.88 C 701.84 487.67, 702.13 485.93, 701.79 483.18 C 701.45 480.44, 701.06 479.07, 700.27 477.14 C 699.48 475.21, 699.00 474.19, 697.84 473.52 C 696.67 472.85, 695.48 472.93, 694.43 473.79" style="stroke: black; fill: black;"/><path d="M 678.15,470.52 C 679.34 470.33, 679.72 469.50, 680.70 468.58 C 681.67 467.66, 681.88 467.10, 683.03 465.93 C 684.18 464.76, 684.66 464.01, 686.46 462.72 C 688.26 461.44, 689.32 460.65, 692.03 459.49 C 694.73 458.32, 696.50 457.70, 700.01 456.89 C 703.51 456.08, 705.57 455.69, 709.54 455.43 C 713.50 455.16, 715.72 455.18, 719.84 455.57 C 723.95 455.96, 726.20 456.35, 730.10 457.40 C 734.00 458.45, 736.01 459.17, 739.32 460.82 C 742.63 462.47, 744.21 463.54, 746.65 465.63 C 749.09 467.73, 750.08 468.97, 751.51 471.31 C 752.95 473.65, 753.33 474.88, 753.83 477.35 C 754.33 479.81, 754.33 481.07, 753.99 483.62 C 753.64 486.18, 753.28 487.52, 752.10 490.12 C 750.92 492.72, 750.09 494.11, 748.08 496.61 C 746.08 499.11, 744.76 500.39, 742.09 502.61 C 739.42 504.83, 737.84 505.92, 734.73 507.71 C 731.62 509.50, 729.80 510.30, 726.54 511.57 C 723.28 512.84, 721.48 513.36, 718.44 514.06 C 715.40 514.77, 713.87 514.64, 711.35 515.11 C 708.83 515.58, 707.63 515.81, 705.84 516.41 C 704.06 517.02, 703.10 517.28, 702.42 518.14 C 701.73 519.00, 701.67 519.85, 702.41 520.71 C 703.15 521.58, 704.09 522.02, 706.11 522.46 C 708.13 522.90, 709.67 523.25, 712.51 522.91 C 715.36 522.58, 717.03 521.86, 720.32 520.79 C 723.62 519.72, 725.49 519.08, 729.01 517.57 C 732.52 516.06, 734.47 515.21, 737.91 513.22 C 741.34 511.24, 743.11 510.11, 746.19 507.66 C 749.28 505.20, 750.86 503.85, 753.33 500.95 C 755.80 498.04, 756.97 496.41, 758.54 493.13 C 760.10 489.85, 760.72 488.02, 761.16 484.55 C 761.59 481.08, 761.53 479.17, 760.71 475.80 C 759.90 472.43, 759.11 470.67, 757.09 467.68 C 755.06 464.70, 753.63 463.28, 750.58 460.86 C 747.52 458.45, 745.64 457.38, 741.83 455.60 C 738.03 453.82, 735.83 453.11, 731.55 451.97 C 727.27 450.84, 724.88 450.44, 720.43 449.93 C 715.98 449.41, 713.61 449.34, 709.29 449.41 C 704.97 449.49, 702.77 449.78, 698.82 450.31 C 694.86 450.85, 692.98 451.16, 689.50 452.11 C 686.03 453.05, 684.14 453.41, 681.46 455.04 C 678.77 456.67, 677.61 458.18, 676.10 460.27 C 674.58 462.36, 674.18 463.66, 673.90 465.51 C 673.63 467.36, 673.87 468.51, 674.72 469.52 C 675.56 470.52, 676.95 470.70, 678.15 470.52" style="stroke: black; fill: black;"/><path d="M 801.60,525.02 C 802.07 523.86, 801.89 522.95, 801.28 521.66 C 800.66 520.37, 799.99 519.65, 798.51 518.57 C 797.03 517.49, 795.91 516.92, 793.86 516.25 C 791.80 515.57, 790.61 515.45, 788.24 515.19 C 785.87 514.92, 784.62 514.82, 781.99 514.94 C 779.36 515.07, 777.88 515.20, 775.09 515.82 C 772.30 516.43, 770.81 516.90, 768.03 518.02 C 765.26 519.14, 763.81 519.82, 761.23 521.43 C 758.64 523.04, 757.30 523.99, 755.12 526.06 C 752.95 528.13, 751.91 529.33, 750.36 531.78 C 748.81 534.23, 748.12 535.60, 747.38 538.33 C 746.63 541.05, 746.37 542.58, 746.63 545.41 C 746.89 548.23, 747.32 549.84, 748.69 552.46 C 750.06 555.08, 751.06 556.47, 753.47 558.52 C 755.87 560.58, 757.47 561.41, 760.72 562.72 C 763.96 564.03, 765.93 564.46, 769.71 565.08 C 773.48 565.70, 775.55 565.80, 779.59 565.83 C 783.63 565.85, 785.85 565.73, 789.90 565.20 C 793.94 564.66, 796.05 564.18, 799.81 563.15 C 803.57 562.11, 805.44 561.48, 808.70 560.00 C 811.97 558.53, 813.65 557.76, 816.14 555.76 C 818.64 553.77, 819.62 552.47, 821.16 550.02 C 822.71 547.57, 823.29 546.18, 823.86 543.51 C 824.43 540.84, 824.44 539.35, 824.02 536.69 C 823.61 534.02, 823.07 532.59, 821.78 530.19 C 820.50 527.78, 819.48 526.63, 817.60 524.68 C 815.73 522.73, 814.55 521.87, 812.41 520.43 C 810.26 518.99, 808.97 518.32, 806.88 517.49 C 804.79 516.67, 803.60 516.43, 801.95 516.31 C 800.31 516.18, 799.65 516.51, 798.64 516.88 C 797.63 517.25, 797.31 517.51, 796.93 518.15 C 796.55 518.79, 796.58 519.38, 796.74 520.07 C 796.89 520.76, 797.09 520.91, 797.70 521.60 C 798.32 522.29, 798.65 522.80, 799.80 523.51 C 800.95 524.23, 801.90 524.36, 803.45 525.16 C 805.01 525.97, 805.97 526.43, 807.59 527.54 C 809.20 528.65, 810.11 529.37, 811.53 530.73 C 812.95 532.09, 813.71 532.85, 814.70 534.34 C 815.69 535.82, 816.10 536.61, 816.50 538.16 C 816.91 539.70, 817.03 540.49, 816.74 542.07 C 816.46 543.65, 816.15 544.49, 815.08 546.06 C 814.00 547.63, 813.25 548.36, 811.38 549.93 C 809.51 551.50, 808.39 552.48, 805.72 553.90 C 803.05 555.32, 801.36 556.01, 798.04 557.03 C 794.71 558.04, 792.75 558.52, 789.10 558.98 C 785.44 559.44, 783.35 559.49, 779.74 559.33 C 776.14 559.17, 774.25 558.93, 771.07 558.18 C 767.89 557.43, 766.31 556.76, 763.85 555.57 C 761.39 554.38, 760.43 553.63, 758.78 552.25 C 757.13 550.87, 756.50 550.18, 755.60 548.66 C 754.69 547.15, 754.41 546.32, 754.26 544.69 C 754.10 543.06, 754.25 542.22, 754.81 540.52 C 755.37 538.83, 755.87 537.89, 757.05 536.22 C 758.24 534.55, 759.02 533.67, 760.73 532.17 C 762.45 530.67, 763.53 529.94, 765.63 528.73 C 767.72 527.51, 768.94 526.96, 771.20 526.11 C 773.47 525.26, 774.70 524.94, 776.95 524.48 C 779.19 524.01, 780.39 523.90, 782.45 523.78 C 784.50 523.67, 785.55 523.68, 787.22 523.90 C 788.90 524.11, 789.56 524.34, 790.84 524.84 C 792.13 525.33, 792.58 525.87, 793.65 526.38 C 794.72 526.88, 795.12 527.15, 796.18 527.36 C 797.23 527.57, 797.85 527.89, 798.93 527.42 C 800.02 526.96, 801.13 526.17, 801.60 525.02" style="stroke: black; fill: black;"/><path d="M 920.75,477.04 C 919.80 477.68, 919.62 478.26, 919.21 479.65 C 918.80 481.03, 918.65 481.91, 918.70 483.97 C 918.75 486.03, 918.99 487.33, 919.47 489.96 C 919.94 492.58, 920.46 494.03, 921.08 497.11 C 921.70 500.19, 922.02 501.89, 922.56 505.35 C 923.10 508.81, 923.29 510.68, 923.78 514.41 C 924.27 518.14, 924.49 520.15, 925.02 524.00 C 925.54 527.86, 925.82 529.88, 926.40 533.69 C 926.97 537.51, 927.28 539.45, 927.88 543.09 C 928.48 546.72, 928.82 548.53, 929.39 551.85 C 929.96 555.17, 930.09 556.84, 930.72 559.69 C 931.35 562.55, 931.78 563.91, 932.55 566.13 C 933.31 568.36, 933.69 569.43, 934.55 570.81 C 935.40 572.19, 936.02 572.46, 936.81 573.01 C 937.60 573.57, 937.90 573.59, 938.51 573.56 C 939.13 573.54, 939.48 573.30, 939.90 572.88 C 940.33 572.46, 940.42 572.33, 940.64 571.47 C 940.87 570.60, 941.17 570.07, 941.02 568.56 C 940.87 567.05, 940.45 566.06, 939.89 563.91 C 939.33 561.76, 938.98 560.52, 938.22 557.82 C 937.46 555.12, 936.90 553.60, 936.09 550.42 C 935.28 547.25, 934.86 545.47, 934.15 541.94 C 933.44 538.40, 933.11 536.50, 932.52 532.75 C 931.94 529.01, 931.67 527.03, 931.22 523.22 C 930.77 519.41, 930.60 517.43, 930.29 513.70 C 929.97 509.98, 929.85 508.09, 929.64 504.59 C 929.43 501.08, 929.32 499.36, 929.23 496.18 C 929.14 493.00, 929.39 491.43, 929.18 488.70 C 928.96 485.97, 928.71 484.59, 928.14 482.55 C 927.58 480.50, 927.18 479.70, 926.34 478.48 C 925.51 477.26, 925.08 476.74, 923.96 476.45 C 922.84 476.16, 921.70 476.40, 920.75 477.04" style="stroke: black; fill: black;"/><path d="M 898.99,533.09 C 899.76 533.98, 900.41 534.06, 902.06 534.40 C 903.71 534.73, 904.75 534.99, 907.23 534.76 C 909.71 534.52, 911.30 533.88, 914.46 533.23 C 917.62 532.58, 919.48 532.15, 923.03 531.52 C 926.58 530.88, 928.58 530.61, 932.21 530.06 C 935.85 529.50, 937.72 529.29, 941.20 528.75 C 944.69 528.21, 946.55 528.25, 949.64 527.37 C 952.72 526.50, 955.39 525.69, 956.64 524.36 C 957.89 523.04, 957.55 521.48, 955.90 520.75 C 954.25 520.02, 951.56 520.44, 948.41 520.70 C 945.27 520.97, 943.59 521.54, 940.17 522.08 C 936.74 522.62, 934.90 522.94, 931.30 523.38 C 927.69 523.82, 925.72 524.03, 922.13 524.29 C 918.54 524.55, 916.62 524.49, 913.35 524.67 C 910.09 524.85, 908.33 524.68, 905.79 525.20 C 903.26 525.72, 902.19 526.34, 900.68 527.28 C 899.16 528.23, 898.56 528.79, 898.22 529.95 C 897.88 531.11, 898.22 532.20, 898.99 533.09" style="stroke: black; fill: black;"/><path d="M 966.24,479.69 C 965.36 480.32, 965.31 480.72, 964.92 481.93 C 964.54 483.14, 964.30 483.82, 964.33 485.72 C 964.36 487.62, 964.57 488.88, 965.07 491.43 C 965.56 493.98, 966.14 495.42, 966.81 498.48 C 967.49 501.54, 967.83 503.27, 968.44 506.75 C 969.04 510.23, 969.33 512.13, 969.84 515.89 C 970.35 519.65, 970.56 521.65, 970.99 525.55 C 971.42 529.45, 971.61 531.50, 971.99 535.38 C 972.38 539.26, 972.59 541.27, 972.92 544.95 C 973.25 548.63, 973.34 550.52, 973.65 553.78 C 973.95 557.04, 973.94 558.66, 974.43 561.22 C 974.92 563.79, 975.17 564.98, 976.09 566.60 C 977.01 568.22, 977.63 568.85, 979.02 569.33 C 980.42 569.81, 981.59 569.70, 983.08 569.00 C 984.57 568.31, 985.50 567.50, 986.46 565.83 C 987.43 564.16, 987.52 562.89, 987.91 560.64 C 988.29 558.40, 988.02 557.02, 988.39 554.61 C 988.75 552.21, 989.01 550.97, 989.72 548.62 C 990.44 546.27, 990.90 545.08, 991.95 542.87 C 993.00 540.66, 993.66 539.55, 994.98 537.58 C 996.31 535.61, 997.08 534.67, 998.57 533.02 C 1000.07 531.38, 1000.90 530.56, 1002.45 529.36 C 1004.01 528.17, 1004.84 527.72, 1006.34 527.05 C 1007.84 526.39, 1008.61 526.17, 1009.96 526.05 C 1011.32 525.93, 1011.91 525.99, 1013.11 526.46 C 1014.30 526.92, 1014.83 527.31, 1015.92 528.36 C 1017.01 529.42, 1017.55 530.08, 1018.55 531.73 C 1019.56 533.39, 1019.99 534.43, 1020.95 536.64 C 1021.91 538.85, 1022.44 540.20, 1023.36 542.79 C 1024.29 545.38, 1024.74 546.80, 1025.58 549.57 C 1026.41 552.35, 1026.67 553.88, 1027.55 556.65 C 1028.44 559.43, 1028.91 560.89, 1029.98 563.44 C 1031.06 565.99, 1031.58 567.20, 1032.92 569.39 C 1034.26 571.57, 1034.95 572.66, 1036.67 574.36 C 1038.40 576.06, 1039.41 576.83, 1041.54 577.87 C 1043.68 578.91, 1044.88 579.29, 1047.35 579.58 C 1049.81 579.86, 1051.20 579.83, 1053.87 579.29 C 1056.53 578.75, 1057.98 578.24, 1060.66 576.89 C 1063.34 575.54, 1064.70 574.58, 1067.26 572.54 C 1069.81 570.51, 1071.06 569.21, 1073.42 566.72 C 1075.78 564.22, 1076.98 562.84, 1079.05 560.07 C 1081.11 557.30, 1082.11 555.78, 1083.72 552.87 C 1085.34 549.96, 1086.19 548.46, 1087.12 545.51 C 1088.04 542.56, 1088.27 540.96, 1088.36 538.12 C 1088.44 535.28, 1088.28 533.81, 1087.54 531.31 C 1086.80 528.80, 1086.16 527.57, 1084.64 525.59 C 1083.12 523.60, 1082.10 522.64, 1079.93 521.39 C 1077.76 520.13, 1076.36 519.64, 1073.77 519.30 C 1071.18 518.97, 1069.66 519.07, 1066.97 519.69 C 1064.29 520.31, 1062.84 520.89, 1060.33 522.39 C 1057.83 523.89, 1056.52 524.93, 1054.45 527.19 C 1052.39 529.45, 1051.38 530.85, 1050.00 533.69 C 1048.62 536.53, 1048.04 538.19, 1047.57 541.39 C 1047.10 544.60, 1046.99 546.42, 1047.64 549.72 C 1048.30 553.01, 1048.97 554.78, 1050.85 557.85 C 1052.73 560.93, 1054.07 562.45, 1057.04 565.07 C 1060.02 567.70, 1061.81 568.88, 1065.72 571.00 C 1069.63 573.11, 1071.94 574.03, 1076.59 575.63 C 1081.24 577.23, 1083.86 577.89, 1088.95 578.99 C 1094.05 580.10, 1097.19 580.52, 1102.07 581.18 C 1106.94 581.84, 1109.59 582.27, 1113.34 582.30 C 1117.08 582.33, 1119.27 582.10, 1120.77 581.33 C 1122.28 580.56, 1122.27 579.32, 1120.86 578.46 C 1119.45 577.61, 1117.33 577.55, 1113.71 577.06 C 1110.08 576.56, 1107.48 576.59, 1102.74 576.00 C 1098.00 575.41, 1094.89 575.17, 1090.02 574.11 C 1085.15 573.05, 1082.65 572.33, 1078.38 570.70 C 1074.10 569.06, 1072.00 568.01, 1068.64 565.93 C 1065.27 563.85, 1063.84 562.63, 1061.56 560.29 C 1059.28 557.96, 1058.44 556.62, 1057.22 554.24 C 1056.00 551.85, 1055.78 550.67, 1055.48 548.37 C 1055.17 546.06, 1055.27 544.90, 1055.68 542.72 C 1056.09 540.54, 1056.51 539.40, 1057.53 537.46 C 1058.55 535.52, 1059.30 534.57, 1060.76 533.02 C 1062.21 531.47, 1063.15 530.75, 1064.80 529.71 C 1066.46 528.68, 1067.39 528.32, 1069.03 527.84 C 1070.67 527.37, 1071.55 527.29, 1073.00 527.34 C 1074.46 527.39, 1075.13 527.53, 1076.30 528.08 C 1077.46 528.64, 1077.99 529.07, 1078.82 530.11 C 1079.65 531.16, 1080.06 531.78, 1080.45 533.30 C 1080.83 534.81, 1080.93 535.73, 1080.74 537.69 C 1080.55 539.65, 1080.25 540.78, 1079.50 543.10 C 1078.76 545.41, 1078.30 546.77, 1077.01 549.27 C 1075.72 551.76, 1074.86 553.17, 1073.05 555.58 C 1071.23 557.98, 1070.09 559.23, 1067.94 561.29 C 1065.79 563.34, 1064.53 564.32, 1062.28 565.86 C 1060.03 567.40, 1058.78 567.94, 1056.69 568.99 C 1054.59 570.04, 1053.58 570.54, 1051.81 571.11 C 1050.04 571.69, 1049.27 571.84, 1047.84 571.88 C 1046.41 571.91, 1045.83 571.81, 1044.66 571.29 C 1043.49 570.76, 1042.98 570.40, 1041.98 569.26 C 1040.98 568.12, 1040.55 567.36, 1039.67 565.60 C 1038.79 563.84, 1038.41 562.74, 1037.58 560.45 C 1036.75 558.17, 1036.33 556.81, 1035.53 554.17 C 1034.73 551.53, 1034.35 550.09, 1033.57 547.26 C 1032.79 544.43, 1032.51 542.87, 1031.61 540.02 C 1030.71 537.16, 1030.26 535.61, 1029.05 533.00 C 1027.84 530.38, 1027.16 529.09, 1025.56 526.93 C 1023.96 524.78, 1023.04 523.74, 1021.04 522.22 C 1019.04 520.69, 1017.85 520.04, 1015.54 519.31 C 1013.24 518.58, 1011.92 518.46, 1009.51 518.57 C 1007.10 518.67, 1005.85 518.98, 1003.49 519.84 C 1001.14 520.70, 999.93 521.35, 997.75 522.86 C 995.57 524.37, 994.51 525.39, 992.58 527.40 C 990.65 529.40, 989.75 530.52, 988.11 532.87 C 986.48 535.22, 985.71 536.57, 984.40 539.14 C 983.09 541.71, 982.61 543.10, 981.56 545.74 C 980.51 548.39, 980.03 549.76, 979.17 552.37 C 978.31 554.98, 977.68 556.45, 977.26 558.80 C 976.85 561.15, 976.77 562.43, 977.12 564.12 C 977.47 565.80, 978.14 566.53, 979.02 567.20 C 979.89 567.88, 980.80 567.96, 981.51 567.50 C 982.21 567.04, 982.45 566.44, 982.55 564.92 C 982.66 563.40, 982.41 562.31, 982.03 559.90 C 981.65 557.48, 981.21 555.98, 980.66 552.84 C 980.10 549.71, 979.78 547.83, 979.26 544.21 C 978.74 540.59, 978.50 538.60, 978.08 534.74 C 977.65 530.88, 977.48 528.84, 977.12 524.93 C 976.76 521.01, 976.61 518.98, 976.28 515.18 C 975.96 511.37, 975.74 509.45, 975.50 505.90 C 975.26 502.35, 975.21 500.61, 975.09 497.43 C 974.97 494.24, 975.17 492.63, 974.89 489.96 C 974.61 487.30, 974.30 486.01, 973.67 484.11 C 973.05 482.21, 972.63 481.52, 971.76 480.46 C 970.89 479.40, 970.43 478.96, 969.32 478.80 C 968.22 478.65, 967.12 479.06, 966.24 479.69" style="stroke: black; fill: black;"/><path d="M 1244.51,528.24 C 1244.73 527.02, 1244.38 526.13, 1243.46 525.00 C 1242.54 523.86, 1241.69 523.27, 1239.91 522.57 C 1238.14 521.87, 1236.84 521.60, 1234.57 521.51 C 1232.31 521.42, 1231.07 521.66, 1228.59 522.12 C 1226.10 522.58, 1224.80 522.89, 1222.13 523.81 C 1219.47 524.73, 1218.00 525.29, 1215.26 526.71 C 1212.52 528.14, 1211.11 529.08, 1208.43 530.92 C 1205.76 532.75, 1204.33 533.73, 1201.89 535.87 C 1199.46 538.01, 1198.17 539.14, 1196.25 541.62 C 1194.33 544.10, 1193.46 545.49, 1192.28 548.26 C 1191.11 551.02, 1190.63 552.54, 1190.38 555.43 C 1190.14 558.33, 1190.23 559.91, 1191.06 562.73 C 1191.89 565.55, 1192.52 567.12, 1194.53 569.54 C 1196.54 571.96, 1198.06 573.09, 1201.13 574.82 C 1204.19 576.55, 1206.03 577.12, 1209.88 578.21 C 1213.73 579.30, 1215.93 579.72, 1220.37 580.27 C 1224.81 580.83, 1227.28 580.90, 1232.08 580.98 C 1236.89 581.05, 1239.45 580.93, 1244.41 580.65 C 1249.37 580.38, 1252.43 580.13, 1256.90 579.60 C 1261.37 579.07, 1263.57 578.86, 1266.77 578.01 C 1269.97 577.15, 1271.80 576.40, 1272.92 575.32 C 1274.04 574.23, 1273.80 573.14, 1272.37 572.56 C 1270.94 571.98, 1269.00 572.12, 1265.76 572.43 C 1262.52 572.74, 1260.52 573.50, 1256.19 574.11 C 1251.85 574.72, 1248.89 575.17, 1244.10 575.48 C 1239.31 575.80, 1236.81 575.88, 1232.24 575.68 C 1227.67 575.48, 1225.32 575.25, 1221.27 574.49 C 1217.21 573.73, 1215.20 573.12, 1211.96 571.88 C 1208.72 570.63, 1207.36 569.78, 1205.08 568.28 C 1202.81 566.78, 1201.95 565.93, 1200.58 564.38 C 1199.22 562.83, 1198.78 562.17, 1198.25 560.54 C 1197.72 558.90, 1197.69 558.01, 1197.93 556.21 C 1198.17 554.40, 1198.48 553.41, 1199.43 551.51 C 1200.38 549.60, 1201.13 548.61, 1202.68 546.69 C 1204.22 544.76, 1205.13 543.68, 1207.17 541.89 C 1209.22 540.11, 1210.51 539.23, 1212.89 537.77 C 1215.27 536.31, 1216.65 535.68, 1219.08 534.59 C 1221.51 533.50, 1222.80 533.08, 1225.03 532.34 C 1227.27 531.59, 1228.42 531.22, 1230.25 530.86 C 1232.08 530.49, 1232.79 530.45, 1234.18 530.52 C 1235.57 530.59, 1236.09 530.99, 1237.19 531.20 C 1238.29 531.41, 1238.65 531.59, 1239.68 531.57 C 1240.71 531.56, 1241.36 531.79, 1242.33 531.12 C 1243.30 530.46, 1244.28 529.47, 1244.51 528.24" style="stroke: black; fill: black;"/><path d="M 1316.86,538.80 C 1317.42 537.63, 1317.29 536.55, 1316.66 535.07 C 1316.04 533.58, 1315.37 532.69, 1313.75 531.38 C 1312.12 530.07, 1310.84 529.29, 1308.53 528.53 C 1306.23 527.76, 1304.87 527.71, 1302.23 527.56 C 1299.58 527.40, 1298.20 527.36, 1295.31 527.75 C 1292.42 528.15, 1290.79 528.50, 1287.78 529.51 C 1284.77 530.52, 1283.18 531.27, 1280.27 532.80 C 1277.36 534.33, 1275.88 535.23, 1273.22 537.16 C 1270.56 539.10, 1269.12 540.13, 1266.98 542.49 C 1264.84 544.85, 1263.85 546.26, 1262.51 548.95 C 1261.17 551.64, 1260.70 553.16, 1260.28 555.94 C 1259.87 558.73, 1259.86 560.21, 1260.44 562.87 C 1261.02 565.53, 1261.58 566.95, 1263.17 569.22 C 1264.76 571.50, 1265.93 572.62, 1268.39 574.25 C 1270.84 575.88, 1272.39 576.59, 1275.45 577.37 C 1278.51 578.15, 1280.30 578.19, 1283.70 578.15 C 1287.10 578.10, 1289.01 577.84, 1292.45 577.13 C 1295.89 576.42, 1297.67 575.81, 1300.91 574.58 C 1304.14 573.35, 1305.73 572.61, 1308.64 570.97 C 1311.56 569.33, 1313.07 568.44, 1315.49 566.39 C 1317.90 564.34, 1318.97 563.09, 1320.70 560.71 C 1322.43 558.32, 1323.09 556.98, 1324.14 554.46 C 1325.18 551.93, 1325.63 550.52, 1325.94 548.08 C 1326.25 545.65, 1326.39 544.07, 1325.68 542.27 C 1324.96 540.47, 1323.92 539.56, 1322.38 539.08 C 1320.84 538.60, 1319.41 538.87, 1317.99 539.86 C 1316.57 540.85, 1315.84 541.96, 1315.30 544.03 C 1314.75 546.10, 1314.86 547.57, 1315.25 550.19 C 1315.64 552.82, 1316.30 554.36, 1317.26 557.16 C 1318.22 559.96, 1318.79 561.44, 1320.05 564.19 C 1321.30 566.93, 1321.95 568.34, 1323.54 570.89 C 1325.14 573.44, 1326.07 574.74, 1328.01 576.93 C 1329.94 579.11, 1330.96 580.26, 1333.21 581.82 C 1335.47 583.37, 1337.01 584.21, 1339.28 584.70 C 1341.56 585.18, 1343.34 584.98, 1344.59 584.23 C 1345.84 583.49, 1346.01 582.23, 1345.53 580.99 C 1345.04 579.75, 1343.66 579.18, 1342.16 578.03 C 1340.67 576.89, 1339.66 576.55, 1338.07 575.25 C 1336.47 573.96, 1335.65 573.31, 1334.19 571.57 C 1332.73 569.84, 1331.98 568.71, 1330.77 566.57 C 1329.55 564.42, 1328.97 563.23, 1328.11 560.85 C 1327.24 558.47, 1326.90 557.12, 1326.43 554.68 C 1325.97 552.23, 1326.11 550.81, 1325.80 548.64 C 1325.48 546.46, 1325.49 545.31, 1324.86 543.80 C 1324.22 542.28, 1323.63 541.64, 1322.62 541.05 C 1321.61 540.46, 1320.73 540.44, 1319.80 540.84 C 1318.86 541.25, 1318.35 541.83, 1317.95 543.07 C 1317.56 544.32, 1318.02 545.38, 1317.81 547.08 C 1317.61 548.78, 1317.62 549.78, 1316.93 551.57 C 1316.25 553.37, 1315.72 554.30, 1314.40 556.07 C 1313.07 557.83, 1312.22 558.73, 1310.32 560.41 C 1308.41 562.09, 1307.28 563.02, 1304.87 564.46 C 1302.47 565.91, 1301.05 566.60, 1298.28 567.63 C 1295.52 568.66, 1293.93 569.14, 1291.03 569.63 C 1288.13 570.11, 1286.49 570.16, 1283.80 570.05 C 1281.10 569.93, 1279.78 569.60, 1277.56 569.04 C 1275.33 568.48, 1274.31 568.13, 1272.66 567.25 C 1271.01 566.37, 1270.30 565.83, 1269.30 564.64 C 1268.31 563.46, 1267.99 562.81, 1267.69 561.33 C 1267.38 559.85, 1267.42 558.97, 1267.78 557.23 C 1268.15 555.49, 1268.46 554.47, 1269.50 552.62 C 1270.54 550.78, 1271.30 549.81, 1272.98 548.00 C 1274.67 546.20, 1275.73 545.18, 1277.91 543.59 C 1280.09 542.00, 1281.41 541.22, 1283.89 540.06 C 1286.38 538.90, 1287.81 538.49, 1290.34 537.79 C 1292.86 537.09, 1294.22 536.87, 1296.50 536.56 C 1298.79 536.25, 1299.95 536.16, 1301.78 536.24 C 1303.60 536.32, 1304.31 536.46, 1305.65 536.94 C 1306.98 537.43, 1307.40 538.01, 1308.45 538.65 C 1309.49 539.29, 1309.80 539.69, 1310.87 540.14 C 1311.95 540.60, 1312.63 541.18, 1313.83 540.92 C 1315.02 540.65, 1316.29 539.97, 1316.86 538.80" style="stroke: black; fill: black;"/><path d="M 1362.72,490.41 C 1361.69 490.71, 1361.26 491.01, 1360.58 492.17 C 1359.90 493.32, 1359.48 494.20, 1359.31 496.18 C 1359.14 498.16, 1359.28 499.46, 1359.71 502.06 C 1360.14 504.66, 1360.73 506.15, 1361.48 509.19 C 1362.22 512.22, 1362.68 513.88, 1363.43 517.25 C 1364.19 520.62, 1364.52 522.43, 1365.25 526.05 C 1365.98 529.66, 1366.35 531.58, 1367.08 535.34 C 1367.82 539.10, 1368.17 541.08, 1368.93 544.86 C 1369.69 548.64, 1370.11 550.57, 1370.88 554.26 C 1371.66 557.95, 1372.09 559.84, 1372.81 563.31 C 1373.53 566.78, 1373.79 568.53, 1374.48 571.61 C 1375.17 574.68, 1375.38 576.39, 1376.25 578.69 C 1377.13 581.00, 1377.89 581.84, 1378.87 583.13 C 1379.84 584.42, 1380.26 584.85, 1381.13 585.13 C 1382.00 585.41, 1382.64 585.23, 1383.22 584.52 C 1383.80 583.81, 1383.93 583.17, 1384.03 581.57 C 1384.13 579.96, 1384.21 578.88, 1383.72 576.51 C 1383.23 574.14, 1382.50 572.67, 1381.60 569.73 C 1380.70 566.78, 1380.13 565.14, 1379.21 561.77 C 1378.29 558.41, 1377.84 556.53, 1377.00 552.91 C 1376.15 549.28, 1375.74 547.39, 1375.00 543.65 C 1374.26 539.91, 1373.93 537.95, 1373.30 534.20 C 1372.66 530.45, 1372.33 528.54, 1371.81 524.91 C 1371.28 521.28, 1371.04 519.46, 1370.68 516.05 C 1370.31 512.64, 1370.19 510.91, 1369.99 507.86 C 1369.78 504.81, 1369.87 503.25, 1369.66 500.79 C 1369.44 498.32, 1369.33 497.22, 1368.90 495.53 C 1368.48 493.83, 1368.17 493.28, 1367.53 492.31 C 1366.89 491.34, 1366.67 491.07, 1365.71 490.69 C 1364.75 490.31, 1363.74 490.11, 1362.72 490.41" style="stroke: black; fill: black;"/><path d="M 1350.49,543.09 C 1351.36 543.81, 1351.90 543.66, 1353.49 543.80 C 1355.07 543.94, 1355.98 544.15, 1358.42 543.77 C 1360.86 543.40, 1362.39 542.53, 1365.69 541.95 C 1368.99 541.36, 1371.07 541.14, 1374.93 540.85 C 1378.79 540.56, 1381.02 540.46, 1385.00 540.50 C 1388.97 540.54, 1391.26 540.73, 1394.83 541.05 C 1398.39 541.37, 1400.19 541.92, 1402.83 542.11 C 1405.48 542.30, 1406.45 542.21, 1408.06 541.99 C 1409.67 541.76, 1410.15 541.39, 1410.89 540.99 C 1411.64 540.60, 1411.56 540.42, 1411.79 540.01 C 1412.02 539.60, 1412.10 539.43, 1412.03 538.95 C 1411.95 538.48, 1412.06 538.25, 1411.42 537.63 C 1410.78 537.02, 1410.41 536.51, 1408.84 535.88 C 1407.26 535.25, 1406.26 534.79, 1403.53 534.48 C 1400.80 534.18, 1398.87 534.42, 1395.18 534.36 C 1391.49 534.30, 1389.16 534.23, 1385.07 534.18 C 1380.98 534.13, 1378.75 534.17, 1374.73 534.11 C 1370.71 534.06, 1368.59 533.85, 1364.96 533.90 C 1361.33 533.94, 1359.34 533.71, 1356.60 534.34 C 1353.85 534.97, 1352.71 535.88, 1351.22 537.06 C 1349.72 538.23, 1349.26 539.00, 1349.11 540.21 C 1348.96 541.42, 1349.61 542.37, 1350.49 543.09" style="stroke: black; fill: black;"/></svg>